<svg width="1294" height="80" viewBox="0 0 1294 80" fill="none" xmlns="http://www.w3.org/2000/svg">
<path d="M606.801 36.3636C606.741 35.8598 606.5 35.4688 606.075 35.1903C605.651 34.9119 605.131 34.7727 604.514 34.7727C604.063 34.7727 603.669 34.8456 603.331 34.9915C602.996 35.1373 602.734 35.3378 602.545 35.593C602.36 35.8482 602.267 36.1383 602.267 36.4631C602.267 36.7348 602.332 36.9685 602.461 37.1641C602.594 37.3563 602.763 37.517 602.968 37.6463C603.174 37.7723 603.389 37.8767 603.614 37.9595C603.84 38.0391 604.047 38.1037 604.236 38.1534L605.27 38.4318C605.535 38.5014 605.83 38.5975 606.155 38.7202C606.483 38.8428 606.796 39.0102 607.094 39.2223C607.396 39.4311 607.645 39.6996 607.84 40.0277C608.036 40.3558 608.134 40.7585 608.134 41.2358C608.134 41.786 607.989 42.2831 607.701 42.7273C607.416 43.1714 606.998 43.5244 606.448 43.7862C605.901 44.0481 605.237 44.179 604.455 44.179C603.725 44.179 603.094 44.0613 602.56 43.826C602.03 43.5907 601.612 43.2625 601.308 42.8416C601.006 42.4207 600.835 41.9318 600.795 41.375H602.068C602.101 41.7595 602.231 42.0777 602.456 42.3295C602.685 42.5781 602.973 42.7637 603.321 42.8864C603.672 43.0057 604.05 43.0653 604.455 43.0653C604.925 43.0653 605.348 42.9891 605.722 42.8366C606.097 42.6809 606.393 42.4654 606.612 42.1903C606.831 41.9119 606.94 41.5871 606.94 41.2159C606.94 40.8778 606.846 40.6027 606.657 40.3906C606.468 40.1785 606.219 40.0062 605.911 39.8736C605.603 39.741 605.27 39.625 604.912 39.5256L603.659 39.1676C602.864 38.9389 602.234 38.6125 601.77 38.1882C601.306 37.764 601.074 37.2088 601.074 36.5227C601.074 35.9527 601.228 35.4555 601.536 35.0312C601.848 34.6037 602.265 34.2723 602.789 34.0369C603.316 33.7983 603.904 33.679 604.554 33.679C605.21 33.679 605.794 33.7966 606.304 34.032C606.814 34.264 607.219 34.5821 607.517 34.9865C607.819 35.3909 607.978 35.8499 607.994 36.3636H606.801ZM618.752 38.9091C618.752 39.983 618.558 40.911 618.17 41.6932C617.782 42.4754 617.25 43.0786 616.574 43.5028C615.898 43.9271 615.126 44.1392 614.257 44.1392C613.389 44.1392 612.617 43.9271 611.941 43.5028C611.264 43.0786 610.732 42.4754 610.345 41.6932C609.957 40.911 609.763 39.983 609.763 38.9091C609.763 37.8352 609.957 36.9072 610.345 36.125C610.732 35.3428 611.264 34.7396 611.941 34.3153C612.617 33.8911 613.389 33.679 614.257 33.679C615.126 33.679 615.898 33.8911 616.574 34.3153C617.25 34.7396 617.782 35.3428 618.17 36.125C618.558 36.9072 618.752 37.8352 618.752 38.9091ZM617.558 38.9091C617.558 38.0275 617.411 37.2834 617.116 36.6768C616.824 36.0703 616.428 35.6113 615.928 35.2997C615.431 34.9882 614.874 34.8324 614.257 34.8324C613.641 34.8324 613.082 34.9882 612.582 35.2997C612.085 35.6113 611.689 36.0703 611.394 36.6768C611.102 37.2834 610.956 38.0275 610.956 38.9091C610.956 39.7907 611.102 40.5348 611.394 41.1413C611.689 41.7479 612.085 42.2069 612.582 42.5185C613.082 42.83 613.641 42.9858 614.257 42.9858C614.874 42.9858 615.431 42.83 615.928 42.5185C616.428 42.2069 616.824 41.7479 617.116 41.1413C617.411 40.5348 617.558 39.7907 617.558 38.9091ZM620.825 44V33.8182H622.058V42.9062H626.791V44H620.825ZM635.382 33.8182H636.615V40.5597C636.615 41.2557 636.45 41.8771 636.122 42.424C635.798 42.9676 635.338 43.3968 634.745 43.7116C634.152 44.0232 633.456 44.179 632.657 44.179C631.858 44.179 631.162 44.0232 630.569 43.7116C629.976 43.3968 629.515 42.9676 629.187 42.424C628.862 41.8771 628.7 41.2557 628.7 40.5597V33.8182H629.933V40.4602C629.933 40.9574 630.042 41.3999 630.261 41.7876C630.48 42.1721 630.791 42.4754 631.195 42.6974C631.603 42.9162 632.09 43.0256 632.657 43.0256C633.224 43.0256 633.711 42.9162 634.119 42.6974C634.526 42.4754 634.838 42.1721 635.053 41.7876C635.272 41.3999 635.382 40.9574 635.382 40.4602V33.8182ZM638.52 34.9119V33.8182H646.156V34.9119H642.955V44H641.722V34.9119H638.52ZM649.292 33.8182V44H648.059V33.8182H649.292ZM660.355 38.9091C660.355 39.983 660.161 40.911 659.773 41.6932C659.386 42.4754 658.854 43.0786 658.178 43.5028C657.501 43.9271 656.729 44.1392 655.861 44.1392C654.992 44.1392 654.22 43.9271 653.544 43.5028C652.868 43.0786 652.336 42.4754 651.948 41.6932C651.56 40.911 651.366 39.983 651.366 38.9091C651.366 37.8352 651.56 36.9072 651.948 36.125C652.336 35.3428 652.868 34.7396 653.544 34.3153C654.22 33.8911 654.992 33.679 655.861 33.679C656.729 33.679 657.501 33.8911 658.178 34.3153C658.854 34.7396 659.386 35.3428 659.773 36.125C660.161 36.9072 660.355 37.8352 660.355 38.9091ZM659.162 38.9091C659.162 38.0275 659.014 37.2834 658.719 36.6768C658.428 36.0703 658.032 35.6113 657.531 35.2997C657.034 34.9882 656.477 34.8324 655.861 34.8324C655.244 34.8324 654.686 34.9882 654.185 35.2997C653.688 35.6113 653.292 36.0703 652.997 36.6768C652.705 37.2834 652.56 38.0275 652.56 38.9091C652.56 39.7907 652.705 40.5348 652.997 41.1413C653.292 41.7479 653.688 42.2069 654.185 42.5185C654.686 42.83 655.244 42.9858 655.861 42.9858C656.477 42.9858 657.034 42.83 657.531 42.5185C658.032 42.2069 658.428 41.7479 658.719 41.1413C659.014 40.5348 659.162 39.7907 659.162 38.9091ZM670.502 33.8182V44H669.309L663.761 36.0057H663.661V44H662.428V33.8182H663.621L669.19 41.8324H669.289V33.8182H670.502ZM678.537 36.3636C678.478 35.8598 678.236 35.4688 677.812 35.1903C677.387 34.9119 676.867 34.7727 676.251 34.7727C675.8 34.7727 675.405 34.8456 675.067 34.9915C674.733 35.1373 674.471 35.3378 674.282 35.593C674.096 35.8482 674.003 36.1383 674.003 36.4631C674.003 36.7348 674.068 36.9685 674.197 37.1641C674.33 37.3563 674.499 37.517 674.704 37.6463C674.91 37.7723 675.125 37.8767 675.351 37.9595C675.576 38.0391 675.783 38.1037 675.972 38.1534L677.006 38.4318C677.271 38.5014 677.566 38.5975 677.891 38.7202C678.219 38.8428 678.532 39.0102 678.831 39.2223C679.132 39.4311 679.381 39.6996 679.577 40.0277C679.772 40.3558 679.87 40.7585 679.87 41.2358C679.87 41.786 679.726 42.2831 679.437 42.7273C679.152 43.1714 678.735 43.5244 678.184 43.7862C677.638 44.0481 676.973 44.179 676.191 44.179C675.462 44.179 674.83 44.0613 674.297 43.826C673.766 43.5907 673.349 43.2625 673.044 42.8416C672.742 42.4207 672.572 41.9318 672.532 41.375H673.805C673.838 41.7595 673.967 42.0777 674.192 42.3295C674.421 42.5781 674.709 42.7637 675.057 42.8864C675.409 43.0057 675.787 43.0653 676.191 43.0653C676.662 43.0653 677.084 42.9891 677.459 42.8366C677.833 42.6809 678.13 42.4654 678.349 42.1903C678.567 41.9119 678.677 41.5871 678.677 41.2159C678.677 40.8778 678.582 40.6027 678.393 40.3906C678.204 40.1785 677.956 40.0062 677.648 39.8736C677.339 39.741 677.006 39.625 676.648 39.5256L675.395 39.1676C674.6 38.9389 673.97 38.6125 673.506 38.1882C673.042 37.764 672.81 37.2088 672.81 36.5227C672.81 35.9527 672.964 35.4555 673.273 35.0312C673.584 34.6037 674.002 34.2723 674.525 34.0369C675.052 33.7983 675.641 33.679 676.29 33.679C676.947 33.679 677.53 33.7966 678.04 34.032C678.551 34.264 678.955 34.5821 679.253 34.9865C679.555 35.3909 679.714 35.8499 679.731 36.3636H678.537Z" fill="black"/>
<g clip-path="url(#clip0_1_7)">
<path d="M698 37L693 42L688 37" stroke="#070847" stroke-width="1.5"/>
</g>
<path d="M834.801 36.3636C834.741 35.8598 834.5 35.4688 834.075 35.1903C833.651 34.9119 833.131 34.7727 832.514 34.7727C832.063 34.7727 831.669 34.8456 831.331 34.9915C830.996 35.1373 830.734 35.3378 830.545 35.593C830.36 35.8482 830.267 36.1383 830.267 36.4631C830.267 36.7348 830.332 36.9685 830.461 37.1641C830.594 37.3563 830.763 37.517 830.968 37.6463C831.174 37.7723 831.389 37.8767 831.614 37.9595C831.84 38.0391 832.047 38.1037 832.236 38.1534L833.27 38.4318C833.535 38.5014 833.83 38.5975 834.155 38.7202C834.483 38.8428 834.796 39.0102 835.094 39.2223C835.396 39.4311 835.645 39.6996 835.84 40.0277C836.036 40.3558 836.134 40.7585 836.134 41.2358C836.134 41.786 835.989 42.2831 835.701 42.7273C835.416 43.1714 834.998 43.5244 834.448 43.7862C833.901 44.0481 833.237 44.179 832.455 44.179C831.725 44.179 831.094 44.0613 830.56 43.826C830.03 43.5907 829.612 43.2625 829.308 42.8416C829.006 42.4207 828.835 41.9318 828.795 41.375H830.068C830.101 41.7595 830.231 42.0777 830.456 42.3295C830.685 42.5781 830.973 42.7637 831.321 42.8864C831.672 43.0057 832.05 43.0653 832.455 43.0653C832.925 43.0653 833.348 42.9891 833.722 42.8366C834.097 42.6809 834.393 42.4654 834.612 42.1903C834.831 41.9119 834.94 41.5871 834.94 41.2159C834.94 40.8778 834.846 40.6027 834.657 40.3906C834.468 40.1785 834.219 40.0062 833.911 39.8736C833.603 39.741 833.27 39.625 832.912 39.5256L831.659 39.1676C830.864 38.9389 830.234 38.6125 829.77 38.1882C829.306 37.764 829.074 37.2088 829.074 36.5227C829.074 35.9527 829.228 35.4555 829.536 35.0312C829.848 34.6037 830.265 34.2723 830.789 34.0369C831.316 33.7983 831.904 33.679 832.554 33.679C833.21 33.679 833.794 33.7966 834.304 34.032C834.814 34.264 835.219 34.5821 835.517 34.9865C835.819 35.3909 835.978 35.8499 835.994 36.3636H834.801ZM844.843 33.8182H846.075V40.5597C846.075 41.2557 845.911 41.8771 845.583 42.424C845.258 42.9676 844.799 43.3968 844.206 43.7116C843.613 44.0232 842.917 44.179 842.118 44.179C841.319 44.179 840.623 44.0232 840.03 43.7116C839.437 43.3968 838.976 42.9676 838.648 42.424C838.323 41.8771 838.161 41.2557 838.161 40.5597V33.8182H839.394V40.4602C839.394 40.9574 839.503 41.3999 839.722 41.7876C839.941 42.1721 840.252 42.4754 840.656 42.6974C841.064 42.9162 841.551 43.0256 842.118 43.0256C842.685 43.0256 843.172 42.9162 843.58 42.6974C843.987 42.4754 844.299 42.1721 844.514 41.7876C844.733 41.3999 844.843 40.9574 844.843 40.4602V33.8182ZM848.538 44V33.8182H851.978C852.777 33.8182 853.43 33.9624 853.937 34.2507C854.447 34.5357 854.825 34.9219 855.07 35.4091C855.316 35.8963 855.438 36.4399 855.438 37.0398C855.438 37.6397 855.316 38.1849 855.07 38.6754C854.828 39.166 854.454 39.5571 853.947 39.8487C853.44 40.1371 852.79 40.2812 851.998 40.2812H849.532V39.1875H851.958C852.505 39.1875 852.944 39.093 853.276 38.9041C853.607 38.7152 853.847 38.46 853.996 38.1385C854.149 37.8137 854.225 37.4474 854.225 37.0398C854.225 36.6321 854.149 36.2675 853.996 35.946C853.847 35.6245 853.605 35.3726 853.271 35.1903C852.936 35.0047 852.492 34.9119 851.938 34.9119H849.771V44H848.538ZM857.424 44V33.8182H860.865C861.663 33.8182 862.316 33.9624 862.824 34.2507C863.334 34.5357 863.712 34.9219 863.957 35.4091C864.202 35.8963 864.325 36.4399 864.325 37.0398C864.325 37.6397 864.202 38.1849 863.957 38.6754C863.715 39.166 863.341 39.5571 862.833 39.8487C862.326 40.1371 861.677 40.2812 860.885 40.2812H858.419V39.1875H860.845C861.392 39.1875 861.831 39.093 862.162 38.9041C862.494 38.7152 862.734 38.46 862.883 38.1385C863.036 37.8137 863.112 37.4474 863.112 37.0398C863.112 36.6321 863.036 36.2675 862.883 35.946C862.734 35.6245 862.492 35.3726 862.157 35.1903C861.823 35.0047 861.378 34.9119 860.825 34.9119H858.657V44H857.424ZM874.902 38.9091C874.902 39.983 874.708 40.911 874.32 41.6932C873.933 42.4754 873.401 43.0786 872.724 43.5028C872.048 43.9271 871.276 44.1392 870.408 44.1392C869.539 44.1392 868.767 43.9271 868.091 43.5028C867.415 43.0786 866.883 42.4754 866.495 41.6932C866.107 40.911 865.913 39.983 865.913 38.9091C865.913 37.8352 866.107 36.9072 866.495 36.125C866.883 35.3428 867.415 34.7396 868.091 34.3153C868.767 33.8911 869.539 33.679 870.408 33.679C871.276 33.679 872.048 33.8911 872.724 34.3153C873.401 34.7396 873.933 35.3428 874.32 36.125C874.708 36.9072 874.902 37.8352 874.902 38.9091ZM873.709 38.9091C873.709 38.0275 873.561 37.2834 873.266 36.6768C872.975 36.0703 872.579 35.6113 872.078 35.2997C871.581 34.9882 871.024 34.8324 870.408 34.8324C869.791 34.8324 869.233 34.9882 868.732 35.2997C868.235 35.6113 867.839 36.0703 867.544 36.6768C867.252 37.2834 867.107 38.0275 867.107 38.9091C867.107 39.7907 867.252 40.5348 867.544 41.1413C867.839 41.7479 868.235 42.2069 868.732 42.5185C869.233 42.83 869.791 42.9858 870.408 42.9858C871.024 42.9858 871.581 42.83 872.078 42.5185C872.579 42.2069 872.975 41.7479 873.266 41.1413C873.561 40.5348 873.709 39.7907 873.709 38.9091ZM876.975 44V33.8182H880.415C881.211 33.8182 881.864 33.9541 882.374 34.2259C882.885 34.4943 883.263 34.8639 883.508 35.3345C883.753 35.8052 883.876 36.3404 883.876 36.9403C883.876 37.5402 883.753 38.0722 883.508 38.5362C883.263 39.0002 882.886 39.3648 882.379 39.63C881.872 39.8918 881.224 40.0227 880.435 40.0227H877.651V38.9091H880.396C880.939 38.9091 881.377 38.8295 881.708 38.6705C882.043 38.5114 882.285 38.286 882.434 37.9943C882.586 37.6993 882.663 37.348 882.663 36.9403C882.663 36.5327 882.586 36.1764 882.434 35.8714C882.281 35.5665 882.038 35.3312 881.703 35.1655C881.368 34.9964 880.926 34.9119 880.376 34.9119H878.208V44H876.975ZM881.768 39.4261L884.273 44H882.842L880.376 39.4261H881.768ZM885.373 34.9119V33.8182H893.01V34.9119H889.808V44H888.575V34.9119H885.373Z" fill="black"/>
<path d="M456.651 44H455.358L459.097 33.8182H460.369L464.108 44H462.815L459.773 35.429H459.693L456.651 44ZM457.128 40.0227H462.338V41.1165H457.128V40.0227ZM465.694 44V33.8182H466.927V42.9062H471.66V44H465.694ZM473.569 44V33.8182H474.802V42.9062H479.535V44H473.569ZM485.381 44V33.8182H488.822C489.621 33.8182 490.273 33.9624 490.781 34.2507C491.291 34.5357 491.669 34.9219 491.914 35.4091C492.159 35.8963 492.282 36.4399 492.282 37.0398C492.282 37.6397 492.159 38.1849 491.914 38.6754C491.672 39.166 491.298 39.5571 490.79 39.8487C490.283 40.1371 489.634 40.2812 488.842 40.2812H486.376V39.1875H488.802C489.349 39.1875 489.788 39.093 490.119 38.9041C490.451 38.7152 490.691 38.46 490.84 38.1385C490.993 37.8137 491.069 37.4474 491.069 37.0398C491.069 36.6321 490.993 36.2675 490.84 35.946C490.691 35.6245 490.449 35.3726 490.114 35.1903C489.78 35.0047 489.335 34.9119 488.782 34.9119H486.614V44H485.381ZM494.268 44V33.8182H497.708C498.504 33.8182 499.157 33.9541 499.667 34.2259C500.178 34.4943 500.556 34.8639 500.801 35.3345C501.046 35.8052 501.169 36.3404 501.169 36.9403C501.169 37.5402 501.046 38.0722 500.801 38.5362C500.556 39.0002 500.179 39.3648 499.672 39.63C499.165 39.8918 498.517 40.0227 497.728 40.0227H494.944V38.9091H497.689C498.232 38.9091 498.67 38.8295 499.001 38.6705C499.336 38.5114 499.578 38.286 499.727 37.9943C499.879 37.6993 499.956 37.348 499.956 36.9403C499.956 36.5327 499.879 36.1764 499.727 35.8714C499.574 35.5665 499.331 35.3312 498.996 35.1655C498.661 34.9964 498.219 34.9119 497.669 34.9119H495.501V44H494.268ZM499.061 39.4261L501.566 44H500.135L497.669 39.4261H499.061ZM511.814 38.9091C511.814 39.983 511.62 40.911 511.232 41.6932C510.845 42.4754 510.313 43.0786 509.637 43.5028C508.96 43.9271 508.188 44.1392 507.32 44.1392C506.451 44.1392 505.679 43.9271 505.003 43.5028C504.327 43.0786 503.795 42.4754 503.407 41.6932C503.019 40.911 502.825 39.983 502.825 38.9091C502.825 37.8352 503.019 36.9072 503.407 36.125C503.795 35.3428 504.327 34.7396 505.003 34.3153C505.679 33.8911 506.451 33.679 507.32 33.679C508.188 33.679 508.96 33.8911 509.637 34.3153C510.313 34.7396 510.845 35.3428 511.232 36.125C511.62 36.9072 511.814 37.8352 511.814 38.9091ZM510.621 38.9091C510.621 38.0275 510.473 37.2834 510.178 36.6768C509.887 36.0703 509.491 35.6113 508.99 35.2997C508.493 34.9882 507.936 34.8324 507.32 34.8324C506.703 34.8324 506.145 34.9882 505.644 35.2997C505.147 35.6113 504.751 36.0703 504.456 36.6768C504.164 37.2834 504.019 38.0275 504.019 38.9091C504.019 39.7907 504.164 40.5348 504.456 41.1413C504.751 41.7479 505.147 42.2069 505.644 42.5185C506.145 42.83 506.703 42.9858 507.32 42.9858C507.936 42.9858 508.493 42.83 508.99 42.5185C509.491 42.2069 509.887 41.7479 510.178 41.1413C510.473 40.5348 510.621 39.7907 510.621 38.9091ZM517.029 44H513.887V33.8182H517.169C518.156 33.8182 519.001 34.022 519.704 34.4297C520.407 34.834 520.945 35.4157 521.32 36.1747C521.694 36.9304 521.882 37.8352 521.882 38.8892C521.882 39.9498 521.693 40.8629 521.315 41.6286C520.937 42.3909 520.387 42.9775 519.664 43.3885C518.942 43.7962 518.063 44 517.029 44ZM515.12 42.9062H516.95C517.792 42.9062 518.489 42.7438 519.043 42.419C519.596 42.0942 520.009 41.6319 520.281 41.032C520.552 40.4321 520.688 39.7178 520.688 38.8892C520.688 38.0672 520.554 37.3596 520.286 36.7663C520.017 36.1697 519.616 35.7124 519.083 35.3942C518.549 35.0727 517.884 34.9119 517.089 34.9119H515.12V42.9062ZM530.632 33.8182H531.865V40.5597C531.865 41.2557 531.7 41.8771 531.372 42.424C531.048 42.9676 530.588 43.3968 529.995 43.7116C529.402 44.0232 528.706 44.179 527.907 44.179C527.108 44.179 526.412 44.0232 525.819 43.7116C525.226 43.3968 524.765 42.9676 524.437 42.424C524.112 41.8771 523.95 41.2557 523.95 40.5597V33.8182H525.183V40.4602C525.183 40.9574 525.292 41.3999 525.511 41.7876C525.73 42.1721 526.041 42.4754 526.445 42.6974C526.853 42.9162 527.34 43.0256 527.907 43.0256C528.474 43.0256 528.961 42.9162 529.369 42.6974C529.776 42.4754 530.088 42.1721 530.303 41.7876C530.522 41.3999 530.632 40.9574 530.632 40.4602V33.8182ZM542.52 37H541.287C541.214 36.6454 541.086 36.3338 540.904 36.0653C540.725 35.7969 540.506 35.5715 540.248 35.3892C539.993 35.2036 539.709 35.0644 539.398 34.9716C539.086 34.8788 538.761 34.8324 538.423 34.8324C537.807 34.8324 537.248 34.9882 536.748 35.2997C536.251 35.6113 535.855 36.0703 535.56 36.6768C535.268 37.2834 535.122 38.0275 535.122 38.9091C535.122 39.7907 535.268 40.5348 535.56 41.1413C535.855 41.7479 536.251 42.2069 536.748 42.5185C537.248 42.83 537.807 42.9858 538.423 42.9858C538.761 42.9858 539.086 42.9394 539.398 42.8466C539.709 42.7538 539.993 42.6162 540.248 42.4339C540.506 42.2483 540.725 42.0213 540.904 41.7528C541.086 41.4811 541.214 41.1695 541.287 40.8182H542.52C542.427 41.3385 542.258 41.8042 542.013 42.2152C541.768 42.6262 541.463 42.9759 541.098 43.2642C540.733 43.5492 540.324 43.7663 539.87 43.9155C539.419 44.0646 538.937 44.1392 538.423 44.1392C537.555 44.1392 536.783 43.9271 536.107 43.5028C535.43 43.0786 534.898 42.4754 534.511 41.6932C534.123 40.911 533.929 39.983 533.929 38.9091C533.929 37.8352 534.123 36.9072 534.511 36.125C534.898 35.3428 535.43 34.7396 536.107 34.3153C536.783 33.8911 537.555 33.679 538.423 33.679C538.937 33.679 539.419 33.7536 539.87 33.9027C540.324 34.0518 540.733 34.2706 541.098 34.5589C541.463 34.844 541.768 35.192 542.013 35.603C542.258 36.0107 542.427 36.4763 542.52 37ZM543.955 34.9119V33.8182H551.592V34.9119H548.39V44H547.157V34.9119H543.955ZM559.063 36.3636C559.003 35.8598 558.761 35.4688 558.337 35.1903C557.913 34.9119 557.392 34.7727 556.776 34.7727C556.325 34.7727 555.931 34.8456 555.593 34.9915C555.258 35.1373 554.996 35.3378 554.807 35.593C554.622 35.8482 554.529 36.1383 554.529 36.4631C554.529 36.7348 554.593 36.9685 554.723 37.1641C554.855 37.3563 555.024 37.517 555.23 37.6463C555.435 37.7723 555.651 37.8767 555.876 37.9595C556.101 38.0391 556.309 38.1037 556.498 38.1534L557.532 38.4318C557.797 38.5014 558.092 38.5975 558.417 38.7202C558.745 38.8428 559.058 39.0102 559.356 39.2223C559.658 39.4311 559.906 39.6996 560.102 40.0277C560.297 40.3558 560.395 40.7585 560.395 41.2358C560.395 41.786 560.251 42.2831 559.963 42.7273C559.678 43.1714 559.26 43.5244 558.71 43.7862C558.163 44.0481 557.498 44.179 556.716 44.179C555.987 44.179 555.356 44.0613 554.822 43.826C554.292 43.5907 553.874 43.2625 553.569 42.8416C553.268 42.4207 553.097 41.9318 553.057 41.375H554.33C554.363 41.7595 554.492 42.0777 554.718 42.3295C554.946 42.5781 555.235 42.7637 555.583 42.8864C555.934 43.0057 556.312 43.0653 556.716 43.0653C557.187 43.0653 557.609 42.9891 557.984 42.8366C558.359 42.6809 558.655 42.4654 558.874 42.1903C559.093 41.9119 559.202 41.5871 559.202 41.2159C559.202 40.8778 559.108 40.6027 558.919 40.3906C558.73 40.1785 558.481 40.0062 558.173 39.8736C557.865 39.741 557.532 39.625 557.174 39.5256L555.921 39.1676C555.125 38.9389 554.496 38.6125 554.032 38.1882C553.568 37.764 553.336 37.2088 553.336 36.5227C553.336 35.9527 553.49 35.4555 553.798 35.0312C554.109 34.6037 554.527 34.2723 555.051 34.0369C555.578 33.7983 556.166 33.679 556.816 33.679C557.472 33.679 558.055 33.7966 558.566 34.032C559.076 34.264 559.48 34.5821 559.779 34.9865C560.08 35.3909 560.239 35.8499 560.256 36.3636H559.063Z" fill="black"/>
<path d="M734.651 44H733.358L737.097 33.8182H738.369L742.108 44H740.815L737.773 35.429H737.693L734.651 44ZM735.128 40.0227H740.338V41.1165H735.128V40.0227ZM743.694 44V33.8182H747.254C747.963 33.8182 748.548 33.9408 749.009 34.1861C749.469 34.428 749.812 34.7545 750.038 35.1655C750.263 35.5732 750.376 36.0256 750.376 36.5227C750.376 36.9602 750.298 37.3215 750.142 37.6065C749.99 37.8916 749.787 38.117 749.536 38.2827C749.287 38.4484 749.017 38.571 748.725 38.6506V38.75C749.037 38.7699 749.35 38.8793 749.665 39.0781C749.98 39.277 750.243 39.562 750.455 39.9332C750.667 40.3045 750.773 40.7585 750.773 41.2955C750.773 41.8059 750.657 42.2649 750.425 42.6726C750.193 43.0803 749.827 43.4034 749.327 43.642C748.826 43.8807 748.175 44 747.373 44H743.694ZM744.927 42.9062H747.373C748.178 42.9062 748.75 42.7505 749.088 42.4389C749.429 42.1241 749.6 41.7429 749.6 41.2955C749.6 40.9508 749.512 40.6326 749.337 40.3409C749.161 40.0459 748.911 39.8106 748.586 39.6349C748.261 39.456 747.877 39.3665 747.433 39.3665H744.927V42.9062ZM744.927 38.2926H747.214C747.585 38.2926 747.92 38.2197 748.218 38.0739C748.52 37.928 748.758 37.7225 748.934 37.4574C749.113 37.1922 749.202 36.8807 749.202 36.5227C749.202 36.0753 749.047 35.6958 748.735 35.3842C748.424 35.0694 747.93 34.9119 747.254 34.9119H744.927V38.2926ZM761.39 38.9091C761.39 39.983 761.196 40.911 760.809 41.6932C760.421 42.4754 759.889 43.0786 759.213 43.5028C758.537 43.9271 757.764 44.1392 756.896 44.1392C756.028 44.1392 755.255 43.9271 754.579 43.5028C753.903 43.0786 753.371 42.4754 752.983 41.6932C752.596 40.911 752.402 39.983 752.402 38.9091C752.402 37.8352 752.596 36.9072 752.983 36.125C753.371 35.3428 753.903 34.7396 754.579 34.3153C755.255 33.8911 756.028 33.679 756.896 33.679C757.764 33.679 758.537 33.8911 759.213 34.3153C759.889 34.7396 760.421 35.3428 760.809 36.125C761.196 36.9072 761.39 37.8352 761.39 38.9091ZM760.197 38.9091C760.197 38.0275 760.05 37.2834 759.755 36.6768C759.463 36.0703 759.067 35.6113 758.566 35.2997C758.069 34.9882 757.512 34.8324 756.896 34.8324C756.279 34.8324 755.721 34.9882 755.221 35.2997C754.723 35.6113 754.327 36.0703 754.032 36.6768C753.741 37.2834 753.595 38.0275 753.595 38.9091C753.595 39.7907 753.741 40.5348 754.032 41.1413C754.327 41.7479 754.723 42.2069 755.221 42.5185C755.721 42.83 756.279 42.9858 756.896 42.9858C757.512 42.9858 758.069 42.83 758.566 42.5185C759.067 42.2069 759.463 41.7479 759.755 41.1413C760.05 40.5348 760.197 39.7907 760.197 38.9091ZM770.145 33.8182H771.378V40.5597C771.378 41.2557 771.214 41.8771 770.886 42.424C770.561 42.9676 770.102 43.3968 769.509 43.7116C768.916 44.0232 768.22 44.179 767.421 44.179C766.622 44.179 765.926 44.0232 765.333 43.7116C764.739 43.3968 764.279 42.9676 763.951 42.424C763.626 41.8771 763.463 41.2557 763.463 40.5597V33.8182H764.696V40.4602C764.696 40.9574 764.806 41.3999 765.025 41.7876C765.243 42.1721 765.555 42.4754 765.959 42.6974C766.367 42.9162 766.854 43.0256 767.421 43.0256C767.988 43.0256 768.475 42.9162 768.882 42.6974C769.29 42.4754 769.602 42.1721 769.817 41.7876C770.036 41.3999 770.145 40.9574 770.145 40.4602V33.8182ZM773.284 34.9119V33.8182H780.92V34.9119H777.718V44H776.485V34.9119H773.284Z" fill="black"/>
<path d="M1208 47C1212.42 47 1216 43.4183 1216 39C1216 34.5817 1212.42 31 1208 31C1203.58 31 1200 34.5817 1200 39C1200 43.4183 1203.58 47 1208 47Z" stroke="black" stroke-width="2" stroke-linecap="round" stroke-linejoin="round"/>
<path d="M1218 48.9999L1213.65 44.6499" stroke="black" stroke-width="2" stroke-linecap="round" stroke-linejoin="round"/>
<path d="M1251 50C1251.55 50 1252 49.5523 1252 49C1252 48.4477 1251.55 48 1251 48C1250.45 48 1250 48.4477 1250 49C1250 49.5523 1250.45 50 1251 50Z" stroke="black" stroke-width="2" stroke-linecap="round" stroke-linejoin="round"/>
<path d="M1262 50C1262.55 50 1263 49.5523 1263 49C1263 48.4477 1262.55 48 1262 48C1261.45 48 1261 48.4477 1261 49C1261 49.5523 1261.45 50 1262 50Z" stroke="black" stroke-width="2" stroke-linecap="round" stroke-linejoin="round"/>
<path d="M1243 29H1247L1249.68 42.39C1249.77 42.8504 1250.02 43.264 1250.39 43.5583C1250.75 43.8526 1251.21 44.009 1251.68 44H1261.4C1261.87 44.009 1262.33 43.8526 1262.69 43.5583C1263.06 43.264 1263.31 42.8504 1263.4 42.39L1265 34H1248" stroke="black" stroke-width="2" stroke-linecap="round" stroke-linejoin="round"/>
<g clip-path="url(#clip1_1_7)">
<path d="M10.575 50.9428C9.06831 50.9428 7.67318 50.6857 6.38967 50.1715C5.10615 49.6381 3.98075 48.9048 3.01347 47.9714C2.06479 47.0191 1.32072 45.9047 0.781269 44.6286C0.260423 43.3524 0 41.9714 0 40.4857C0 38.981 0.260423 37.6 0.781269 36.3429C1.32072 35.0667 2.06479 33.9619 3.01347 33.0286C3.98075 32.0952 5.09685 31.3619 6.36177 30.8286C7.64528 30.2952 9.0311 30.0286 10.5192 30.0286C12.0817 30.0286 13.4862 30.2857 14.7325 30.8C15.9788 31.2952 17.0764 31.9905 18.025 32.8857L14.6767 36.3143C14.2116 35.781 13.635 35.3619 12.9468 35.0571C12.2585 34.7524 11.4494 34.6 10.5192 34.6C9.7194 34.6 8.98459 34.7333 8.31493 35C7.66388 35.2667 7.09653 35.6667 6.61289 36.2C6.12924 36.7143 5.74791 37.3333 5.46888 38.0571C5.20846 38.7809 5.07825 39.5905 5.07825 40.4857C5.07825 41.3809 5.20846 42.1905 5.46888 42.9143C5.74791 43.6381 6.12924 44.2666 6.61289 44.8C7.09653 45.3142 7.66388 45.7143 8.31493 46C8.98459 46.2667 9.7194 46.4 10.5192 46.4C11.4494 46.4 12.2678 46.2572 12.9747 45.9715C13.6815 45.6667 14.2861 45.2381 14.7883 44.6857L18.1367 48.1143C17.1693 49.0095 16.0719 49.7048 14.8441 50.2C13.635 50.6952 12.212 50.9428 10.575 50.9428Z" fill="black"/>
<path d="M18.3544 50.6286L26.0276 30.3714H30.8547L38.4441 50.6286H33.2264L27.5064 33.6H29.32L23.4606 50.6286H18.3544Z" fill="black"/>
<path d="M40.2962 50.6286V30.3714H45.2907V50.6286H40.2962ZM44.2583 50.6286V46.2286H53.801V50.6286H44.2583Z" fill="black"/>
<path d="M56.1276 50.6286V30.3714H61.1221V50.6286H56.1276Z" fill="black"/>
<path d="M64.6291 50.6286V30.3714H69.6236V50.6286H64.6291ZM68.5913 43.0571V38.7429H78.385V43.0571H68.5913ZM68.5913 34.6857V30.3714H78.8314V34.6857H68.5913Z" fill="black"/>
<path d="M90.8498 51C89.3245 51 87.9201 50.7333 86.6365 50.2C85.3531 49.6667 84.2276 48.9238 83.2604 47.9714C82.3117 47.0191 81.5676 45.9047 81.0281 44.6286C80.4887 43.3334 80.219 41.9429 80.219 40.4571C80.219 38.9714 80.4794 37.6 81.0002 36.3429C81.5397 35.0667 82.2838 33.9524 83.2325 33C84.1811 32.0476 85.2973 31.3143 86.5807 30.8C87.8643 30.2667 89.2687 30 90.794 30C92.3194 30 93.7238 30.2667 95.0075 30.8C96.2904 31.3143 97.4072 32.0476 98.3558 33C99.3044 33.9524 100.039 35.0667 100.56 36.3429C101.099 37.619 101.369 39 101.369 40.4857C101.369 41.9714 101.099 43.3524 100.56 44.6286C100.039 45.9047 99.3044 47.0286 98.3558 48C97.4072 48.9524 96.2904 49.6952 95.0075 50.2285C93.7424 50.7428 92.3566 51 90.8498 51ZM90.794 46.4286C91.9101 46.4286 92.8774 46.181 93.6959 45.6858C94.5144 45.1904 95.1465 44.4952 95.5935 43.6C96.0397 42.7048 96.2632 41.6571 96.2632 40.4571C96.2632 39.581 96.1327 38.7809 95.8725 38.0571C95.6302 37.3333 95.2676 36.7143 94.7839 36.2C94.3002 35.6667 93.7237 35.2571 93.0542 34.9714C92.3845 34.6857 91.6311 34.5429 90.794 34.5429C89.6779 34.5429 88.7106 34.7905 87.8922 35.2857C87.0737 35.7619 86.4412 36.4476 85.9948 37.3429C85.5483 38.2381 85.3252 39.2762 85.3252 40.4571C85.3252 41.3714 85.446 42.2 85.6879 42.9429C85.9482 43.6667 86.3203 44.2953 86.804 44.8286C87.2876 45.3429 87.8643 45.7428 88.5339 46.0285C89.2036 46.2952 89.957 46.4286 90.794 46.4286Z" fill="black"/>
<path d="M107.829 42.4286V38.7714H111.596C112.414 38.7714 113.038 38.5714 113.465 38.1714C113.912 37.7524 114.135 37.1905 114.135 36.4857C114.135 35.8 113.912 35.2476 113.465 34.8286C113.038 34.3905 112.414 34.1714 111.596 34.1714H107.829V30.3714H112.294C113.633 30.3714 114.804 30.6286 115.809 31.1429C116.832 31.6571 117.632 32.3619 118.209 33.2571C118.786 34.1524 119.074 35.2 119.074 36.4C119.074 37.6 118.776 38.6571 118.181 39.5714C117.604 40.4667 116.795 41.1714 115.753 41.6857C114.711 42.181 113.493 42.4286 112.099 42.4286H107.829ZM103.867 50.6286V30.3714H108.862V50.6286H103.867ZM114.582 50.6286L108.834 41.9429L113.326 40.8286L120.357 50.6286H114.582Z" fill="black"/>
<path d="M121.988 50.6286V30.3714H125.475L126.982 34.5143V50.6286H121.988ZM135.632 50.6286L124.08 35.6L125.475 30.3714L137.055 45.4L135.632 50.6286ZM135.632 50.6286L134.348 46.3714V30.3714H139.343V50.6286H135.632Z" fill="black"/>
<path d="M142.859 50.6286V30.3714H147.854V50.6286H142.859Z" fill="black"/>
<path d="M149.91 50.6286L157.583 30.3714H162.41L170 50.6286H164.783L159.062 33.6H160.876L155.017 50.6286H149.91Z" fill="black"/>
</g>
<defs>
<clipPath id="clip0_1_7">
<rect width="12" height="8" fill="white" transform="translate(687 36)"/>
</clipPath>
<clipPath id="clip1_1_7">
<rect width="170" height="21" fill="white" transform="translate(0 30)"/>
</clipPath>
</defs>
</svg>
